<svg width="24" height="18" viewBox="0 0 24 18" fill="none" xmlns="http://www.w3.org/2000/svg">
<g id="C.">
<path d="M0.811646 8.98759C0.811646 6.54467 1.6675 4.49228 3.37921 2.83043C5.09092 1.16857 7.20978 0.337646 9.7358 0.337646C11.5805 0.337646 13.234 0.794656 14.6964 1.70868C16.1422 2.58946 17.2308 3.7943 17.962 5.32321L13.3503 7.0183C13.0013 6.35356 12.5111 5.83007 11.8796 5.44784C11.2481 5.049 10.5335 4.84958 9.7358 4.84958C8.60574 4.84958 7.65017 5.24842 6.8691 6.04611C6.10465 6.82718 5.72242 7.80768 5.72242 8.98759C5.72242 10.1841 6.10465 11.1729 6.8691 11.954C7.65017 12.7351 8.60574 13.1256 9.7358 13.1256C10.5335 13.1256 11.2481 12.9345 11.8796 12.5523C12.5277 12.17 13.018 11.6466 13.3503 10.9818L17.962 12.6769C17.2474 14.1892 16.1589 15.4023 14.6964 16.3164C13.2174 17.2138 11.5638 17.6625 9.7358 17.6625C7.20978 17.6625 5.09092 16.8315 3.37921 15.1697C1.6675 13.5078 0.811646 11.4471 0.811646 8.98759Z" fill="black"/>
<path d="M20.9198 13.0508C21.5679 13.0508 22.108 13.2752 22.5401 13.7239C22.9722 14.156 23.1882 14.6961 23.1882 15.3442C23.1882 15.9923 22.9722 16.5407 22.5401 16.9894C22.108 17.4215 21.5679 17.6375 20.9198 17.6375C20.2883 17.6375 19.7482 17.4215 19.2995 16.9894C18.8674 16.5407 18.6514 15.9923 18.6514 15.3442C18.6514 14.6961 18.8674 14.156 19.2995 13.7239C19.7482 13.2752 20.2883 13.0508 20.9198 13.0508Z" fill="black"/>
</g>
</svg>
